<svg width="16" height="18" viewBox="0 0 16 18" fill="none" xmlns="http://www.w3.org/2000/svg">
<path d="M14.75 0.249827H2.5C1.85713 0.230957 1.233 0.467717 0.76439 0.908217C0.29577 1.34872 0.0209 1.95702 0 2.59983V14.9998C0.02609 15.754 0.35027 16.4671 0.90142 16.9827C1.45258 17.4982 2.18571 17.7741 2.94 17.7498H14.75C14.9481 17.7472 15.1374 17.6674 15.2775 17.5273C15.4176 17.3872 15.4974 17.1979 15.5 16.9998V0.999827C15.4974 0.801717 15.4176 0.612457 15.2775 0.472357C15.1374 0.332267 14.9481 0.252417 14.75 0.249827ZM14 16.2498H2.94C2.58339 16.2746 2.23151 16.1569 1.96156 15.9225C1.69161 15.6882 1.52562 15.3564 1.5 14.9998C1.52562 14.6433 1.69161 14.3114 1.96156 14.0771C2.23151 13.8428 2.58339 13.7251 2.94 13.7498H14V16.2498ZM14 12.2498H2.94C2.43656 12.2504 1.94135 12.3776 1.5 12.6198V2.59983C1.5229 2.35572 1.64028 2.13021 1.8271 1.97142C2.01392 1.81262 2.25538 1.73311 2.5 1.74983H14V12.2498Z" fill="black"/>
<path d="M4.5 5.74976H11C11.1989 5.74976 11.3897 5.67074 11.5303 5.53009C11.671 5.38944 11.75 5.19867 11.75 4.99976C11.75 4.80085 11.671 4.61008 11.5303 4.46943C11.3897 4.32878 11.1989 4.24976 11 4.24976H4.5C4.30109 4.24976 4.11032 4.32878 3.96967 4.46943C3.82902 4.61008 3.75 4.80085 3.75 4.99976C3.75 5.19867 3.82902 5.38944 3.96967 5.53009C4.11032 5.67074 4.30109 5.74976 4.5 5.74976Z" fill="black"/>
<path d="M4.5 9.24976H11C11.1989 9.24976 11.3897 9.17076 11.5303 9.03006C11.671 8.88946 11.75 8.69866 11.75 8.49976C11.75 8.30086 11.671 8.11006 11.5303 7.96946C11.3897 7.82876 11.1989 7.74976 11 7.74976H4.5C4.30109 7.74976 4.11032 7.82876 3.96967 7.96946C3.82902 8.11006 3.75 8.30086 3.75 8.49976C3.75 8.69866 3.82902 8.88946 3.96967 9.03006C4.11032 9.17076 4.30109 9.24976 4.5 9.24976Z" fill="black"/>
</svg>
