<svg width="22" height="21" viewBox="0 0 22 21" fill="none" xmlns="http://www.w3.org/2000/svg">
<path d="M12.3125 13.125C12.3125 13.3475 12.2355 13.565 12.0913 13.75C11.9471 13.935 11.7421 14.0792 11.5023 14.1644C11.2624 14.2495 10.9985 14.2718 10.7439 14.2284C10.4893 14.185 10.2555 14.0778 10.0719 13.9205C9.88837 13.7632 9.76336 13.5627 9.71272 13.3445C9.66208 13.1262 9.68807 12.9 9.78741 12.6945C9.88675 12.4889 10.055 12.3132 10.2708 12.1896C10.4867 12.066 10.7404 12 11 12C11.3481 12 11.6819 12.1185 11.9281 12.3295C12.1742 12.5405 12.3125 12.8266 12.3125 13.125ZM21.5 9V19.5C21.5 19.8978 21.3156 20.2794 20.9874 20.5607C20.6592 20.842 20.2141 21 19.75 21H2.25C1.78587 21 1.34075 20.842 1.01256 20.5607C0.684374 20.2794 0.5 19.8978 0.5 19.5V9C0.5 8.60218 0.684374 8.22064 1.01256 7.93934C1.34075 7.65804 1.78587 7.5 2.25 7.5H6.1875V4.875C6.1875 3.78098 6.69453 2.73177 7.59705 1.95818C8.49957 1.1846 9.72365 0.75 11 0.75C12.2764 0.75 13.5004 1.1846 14.403 1.95818C15.3055 2.73177 15.8125 3.78098 15.8125 4.875V7.5H19.75C20.2141 7.5 20.6592 7.65804 20.9874 7.93934C21.3156 8.22064 21.5 8.60218 21.5 9ZM14.0625 13.125C14.0632 12.638 13.9058 12.1605 13.608 11.7458C13.3101 11.3311 12.8836 10.9956 12.3761 10.7768C11.8685 10.558 11.3 10.4646 10.734 10.5068C10.168 10.5491 9.62696 10.7255 9.17125 11.0163C8.71554 11.3071 8.36318 11.7008 8.15357 12.1534C7.94396 12.606 7.88536 13.0997 7.98433 13.5792C8.08329 14.0587 8.33592 14.5052 8.71396 14.8687C9.09201 15.2322 9.58056 15.4984 10.125 15.6375V17.25C10.125 17.4489 10.2172 17.6397 10.3813 17.7803C10.5454 17.921 10.7679 18 11 18C11.2321 18 11.4546 17.921 11.6187 17.7803C11.7828 17.6397 11.875 17.4489 11.875 17.25V15.6375C12.5074 15.4775 13.0622 15.1462 13.4566 14.6933C13.8509 14.2404 14.0635 13.6901 14.0625 13.125ZM14.0625 4.875C14.0625 4.17881 13.7398 3.51113 13.1655 3.01884C12.5912 2.52656 11.8122 2.25 11 2.25C10.1878 2.25 9.40882 2.52656 8.83449 3.01884C8.26016 3.51113 7.9375 4.17881 7.9375 4.875V7.5H14.0625V4.875Z" fill="#303234"/>
</svg>
