<svg width="163" height="34" viewBox="0 0 163 34" fill="none" xmlns="http://www.w3.org/2000/svg">
<path d="M15.4992 0H36.5808L21.0816 22.9729H0L15.4992 0Z" fill="#AE5971"/>
<path d="M16.4224 25.1022L10.4192 34.0002H32.5008L48 11.0273H31.7024L22.2064 25.1022H16.4224Z" fill="#3E37A9"/>
<path d="M60.72 14.084C60.136 14.084 59.608 13.984 59.136 13.784C58.672 13.584 58.304 13.296 58.032 12.92C57.76 12.544 57.62 12.1 57.612 11.588H59.412C59.436 11.932 59.556 12.204 59.772 12.404C59.996 12.604 60.3 12.704 60.684 12.704C61.076 12.704 61.384 12.612 61.608 12.428C61.832 12.236 61.944 11.988 61.944 11.684C61.944 11.436 61.868 11.232 61.716 11.072C61.564 10.912 61.372 10.788 61.14 10.7C60.916 10.604 60.604 10.5 60.204 10.388C59.66 10.228 59.216 10.072 58.872 9.92C58.536 9.76 58.244 9.524 57.996 9.212C57.756 8.892 57.636 8.468 57.636 7.94C57.636 7.444 57.76 7.012 58.008 6.644C58.256 6.276 58.604 5.996 59.052 5.804C59.5 5.604 60.012 5.504 60.588 5.504C61.452 5.504 62.152 5.716 62.688 6.14C63.232 6.556 63.532 7.14 63.588 7.892H61.74C61.724 7.604 61.6 7.368 61.368 7.184C61.144 6.992 60.844 6.896 60.468 6.896C60.14 6.896 59.876 6.98 59.676 7.148C59.484 7.316 59.388 7.56 59.388 7.88C59.388 8.104 59.46 8.292 59.604 8.444C59.756 8.588 59.94 8.708 60.156 8.804C60.38 8.892 60.692 8.996 61.092 9.116C61.636 9.276 62.08 9.436 62.424 9.596C62.768 9.756 63.064 9.996 63.312 10.316C63.56 10.636 63.684 11.056 63.684 11.576C63.684 12.024 63.568 12.44 63.336 12.824C63.104 13.208 62.764 13.516 62.316 13.748C61.868 13.972 61.336 14.084 60.72 14.084ZM71.3205 10.532C71.3205 10.772 71.3045 10.988 71.2725 11.18H66.4125C66.4525 11.66 66.6205 12.036 66.9165 12.308C67.2125 12.58 67.5765 12.716 68.0085 12.716C68.6325 12.716 69.0765 12.448 69.3405 11.912H71.1525C70.9605 12.552 70.5925 13.08 70.0485 13.496C69.5045 13.904 68.8365 14.108 68.0445 14.108C67.4045 14.108 66.8285 13.968 66.3165 13.688C65.8125 13.4 65.4165 12.996 65.1285 12.476C64.8485 11.956 64.7085 11.356 64.7085 10.676C64.7085 9.988 64.8485 9.384 65.1285 8.864C65.4085 8.344 65.8005 7.944 66.3045 7.664C66.8085 7.384 67.3885 7.244 68.0445 7.244C68.6765 7.244 69.2405 7.38 69.7365 7.652C70.2405 7.924 70.6285 8.312 70.9005 8.816C71.1805 9.312 71.3205 9.884 71.3205 10.532ZM69.5805 10.052C69.5725 9.62 69.4165 9.276 69.1125 9.02C68.8085 8.756 68.4365 8.624 67.9965 8.624C67.5805 8.624 67.2285 8.752 66.9405 9.008C66.6605 9.256 66.4885 9.604 66.4245 10.052H69.5805ZM75.3188 12.452L76.9988 7.352H78.7868L76.3268 14H74.2868L71.8388 7.352H73.6388L75.3188 12.452ZM84.8663 12.404H81.5303L80.9783 14H79.2143L82.2263 5.612H84.1823L87.1943 14H85.4183L84.8663 12.404ZM84.4103 11.06L83.1983 7.556L81.9863 11.06H84.4103Z" fill="white"/>
<path d="M59.92 29.07C59.46 29.07 59.0533 28.99 58.7 28.83C58.3533 28.67 58.08 28.4467 57.88 28.16C57.68 27.8733 57.5733 27.5533 57.56 27.2H58.3C58.3333 27.54 58.4833 27.84 58.75 28.1C59.0167 28.3533 59.4067 28.48 59.92 28.48C60.3933 28.48 60.7667 28.36 61.04 28.12C61.32 27.8733 61.46 27.5633 61.46 27.19C61.46 26.89 61.3833 26.65 61.23 26.47C61.0767 26.2833 60.8867 26.1467 60.66 26.06C60.4333 25.9667 60.12 25.8667 59.72 25.76C59.2533 25.6333 58.8833 25.51 58.61 25.39C58.3367 25.27 58.1033 25.0833 57.91 24.83C57.7167 24.5767 57.62 24.2333 57.62 23.8C57.62 23.44 57.7133 23.12 57.9 22.84C58.0867 22.5533 58.35 22.33 58.69 22.17C59.03 22.01 59.42 21.93 59.86 21.93C60.5067 21.93 61.0267 22.09 61.42 22.41C61.82 22.7233 62.05 23.13 62.11 23.63H61.35C61.3033 23.3433 61.1467 23.09 60.88 22.87C60.6133 22.6433 60.2533 22.53 59.8 22.53C59.38 22.53 59.03 22.6433 58.75 22.87C58.47 23.09 58.33 23.3933 58.33 23.78C58.33 24.0733 58.4067 24.31 58.56 24.49C58.7133 24.67 58.9033 24.8067 59.13 24.9C59.3633 24.9933 59.6767 25.0933 60.07 25.2C60.5233 25.3267 60.89 25.4533 61.17 25.58C61.45 25.7 61.6867 25.8867 61.88 26.14C62.0733 26.3933 62.17 26.7333 62.17 27.16C62.17 27.4867 62.0833 27.7967 61.91 28.09C61.7367 28.3833 61.48 28.62 61.14 28.8C60.8 28.98 60.3933 29.07 59.92 29.07ZM68.4627 25.99C68.4627 26.23 68.456 26.4133 68.4427 26.54H63.9127C63.9327 26.9533 64.0327 27.3067 64.2127 27.6C64.3927 27.8933 64.6293 28.1167 64.9227 28.27C65.216 28.4167 65.536 28.49 65.8827 28.49C66.336 28.49 66.716 28.38 67.0227 28.16C67.336 27.94 67.5427 27.6433 67.6427 27.27H68.3827C68.2493 27.8033 67.9627 28.24 67.5227 28.58C67.0893 28.9133 66.5427 29.08 65.8827 29.08C65.3693 29.08 64.9093 28.9667 64.5027 28.74C64.096 28.5067 63.776 28.18 63.5427 27.76C63.316 27.3333 63.2027 26.8367 63.2027 26.27C63.2027 25.7033 63.316 25.2067 63.5427 24.78C63.7693 24.3533 64.086 24.0267 64.4927 23.8C64.8993 23.5733 65.3627 23.46 65.8827 23.46C66.4027 23.46 66.856 23.5733 67.2427 23.8C67.636 24.0267 67.936 24.3333 68.1427 24.72C68.356 25.1 68.4627 25.5233 68.4627 25.99ZM67.7527 25.97C67.7593 25.5633 67.676 25.2167 67.5027 24.93C67.336 24.6433 67.106 24.4267 66.8127 24.28C66.5193 24.1333 66.1993 24.06 65.8527 24.06C65.3327 24.06 64.8893 24.2267 64.5227 24.56C64.156 24.8933 63.9527 25.3633 63.9127 25.97H67.7527ZM71.6834 28.32L73.5234 23.54H74.2634L72.0734 29H71.2834L69.0934 23.54H69.8434L71.6834 28.32ZM80.1521 25.99C80.1521 26.23 80.1454 26.4133 80.1321 26.54H75.6021C75.6221 26.9533 75.7221 27.3067 75.9021 27.6C76.0821 27.8933 76.3188 28.1167 76.6121 28.27C76.9054 28.4167 77.2254 28.49 77.5721 28.49C78.0254 28.49 78.4054 28.38 78.7121 28.16C79.0254 27.94 79.2321 27.6433 79.3321 27.27H80.0721C79.9388 27.8033 79.6521 28.24 79.2121 28.58C78.7788 28.9133 78.2321 29.08 77.5721 29.08C77.0588 29.08 76.5988 28.9667 76.1921 28.74C75.7854 28.5067 75.4654 28.18 75.2321 27.76C75.0054 27.3333 74.8921 26.8367 74.8921 26.27C74.8921 25.7033 75.0054 25.2067 75.2321 24.78C75.4588 24.3533 75.7754 24.0267 76.1821 23.8C76.5888 23.5733 77.0521 23.46 77.5721 23.46C78.0921 23.46 78.5454 23.5733 78.9321 23.8C79.3254 24.0267 79.6254 24.3333 79.8321 24.72C80.0454 25.1 80.1521 25.5233 80.1521 25.99ZM79.4421 25.97C79.4488 25.5633 79.3654 25.2167 79.1921 24.93C79.0254 24.6433 78.7954 24.4267 78.5021 24.28C78.2088 24.1333 77.8888 24.06 77.5421 24.06C77.0221 24.06 76.5788 24.2267 76.2121 24.56C75.8454 24.8933 75.6421 25.3633 75.6021 25.97H79.4421ZM83.9928 23.44C84.6461 23.44 85.1795 23.6433 85.5928 24.05C86.0061 24.45 86.2128 25.0333 86.2128 25.8V29H85.5228V25.88C85.5228 25.2867 85.3728 24.8333 85.0728 24.52C84.7795 24.2067 84.3761 24.05 83.8628 24.05C83.3361 24.05 82.9161 24.2167 82.6028 24.55C82.2895 24.8833 82.1328 25.3733 82.1328 26.02V29H81.4328V23.54H82.1328V24.47C82.3061 24.1367 82.5561 23.8833 82.8828 23.71C83.2095 23.53 83.5795 23.44 83.9928 23.44ZM88.6709 24.13V27.52C88.6709 27.8533 88.7343 28.0833 88.8609 28.21C88.9876 28.3367 89.2109 28.4 89.5309 28.4H90.1709V29H89.4209C88.9276 29 88.5609 28.8867 88.3209 28.66C88.0809 28.4267 87.9609 28.0467 87.9609 27.52V24.13H87.2009V23.54H87.9609V22.17H88.6709V23.54H90.1709V24.13H88.6709ZM96.2654 25.99C96.2654 26.23 96.2587 26.4133 96.2454 26.54H91.7154C91.7354 26.9533 91.8354 27.3067 92.0154 27.6C92.1954 27.8933 92.4321 28.1167 92.7254 28.27C93.0187 28.4167 93.3387 28.49 93.6854 28.49C94.1387 28.49 94.5187 28.38 94.8254 28.16C95.1387 27.94 95.3454 27.6433 95.4454 27.27H96.1854C96.0521 27.8033 95.7654 28.24 95.3254 28.58C94.8921 28.9133 94.3454 29.08 93.6854 29.08C93.1721 29.08 92.7121 28.9667 92.3054 28.74C91.8987 28.5067 91.5787 28.18 91.3454 27.76C91.1187 27.3333 91.0054 26.8367 91.0054 26.27C91.0054 25.7033 91.1187 25.2067 91.3454 24.78C91.5721 24.3533 91.8887 24.0267 92.2954 23.8C92.7021 23.5733 93.1654 23.46 93.6854 23.46C94.2054 23.46 94.6587 23.5733 95.0454 23.8C95.4387 24.0267 95.7387 24.3333 95.9454 24.72C96.1587 25.1 96.2654 25.5233 96.2654 25.99ZM95.5554 25.97C95.5621 25.5633 95.4787 25.2167 95.3054 24.93C95.1387 24.6433 94.9087 24.4267 94.6154 24.28C94.3221 24.1333 94.0021 24.06 93.6554 24.06C93.1354 24.06 92.6921 24.2267 92.3254 24.56C91.9587 24.8933 91.7554 25.3633 91.7154 25.97H95.5554ZM102.486 25.99C102.486 26.23 102.479 26.4133 102.466 26.54H97.9361C97.9561 26.9533 98.0561 27.3067 98.2361 27.6C98.4161 27.8933 98.6528 28.1167 98.9461 28.27C99.2394 28.4167 99.5594 28.49 99.9061 28.49C100.359 28.49 100.739 28.38 101.046 28.16C101.359 27.94 101.566 27.6433 101.666 27.27H102.406C102.273 27.8033 101.986 28.24 101.546 28.58C101.113 28.9133 100.566 29.08 99.9061 29.08C99.3928 29.08 98.9328 28.9667 98.5261 28.74C98.1194 28.5067 97.7994 28.18 97.5661 27.76C97.3394 27.3333 97.2261 26.8367 97.2261 26.27C97.2261 25.7033 97.3394 25.2067 97.5661 24.78C97.7928 24.3533 98.1094 24.0267 98.5161 23.8C98.9228 23.5733 99.3861 23.46 99.9061 23.46C100.426 23.46 100.879 23.5733 101.266 23.8C101.659 24.0267 101.959 24.3333 102.166 24.72C102.379 25.1 102.486 25.5233 102.486 25.99ZM101.776 25.97C101.783 25.5633 101.699 25.2167 101.526 24.93C101.359 24.6433 101.129 24.4267 100.836 24.28C100.543 24.1333 100.223 24.06 99.8761 24.06C99.3561 24.06 98.9128 24.2267 98.5461 24.56C98.1794 24.8933 97.9761 25.3633 97.9361 25.97H101.776ZM106.327 23.44C106.98 23.44 107.513 23.6433 107.927 24.05C108.34 24.45 108.547 25.0333 108.547 25.8V29H107.857V25.88C107.857 25.2867 107.707 24.8333 107.407 24.52C107.113 24.2067 106.71 24.05 106.197 24.05C105.67 24.05 105.25 24.2167 104.937 24.55C104.623 24.8833 104.467 25.3733 104.467 26.02V29H103.767V23.54H104.467V24.47C104.64 24.1367 104.89 23.8833 105.217 23.71C105.543 23.53 105.913 23.44 106.327 23.44ZM116.889 27.34H113.709L113.099 29H112.359L114.909 22.1H115.699L118.239 29H117.499L116.889 27.34ZM116.679 26.76L115.299 22.98L113.919 26.76H116.679ZM119.043 26.27C119.043 25.7033 119.156 25.21 119.383 24.79C119.609 24.3633 119.923 24.0367 120.323 23.81C120.723 23.5767 121.179 23.46 121.693 23.46C122.366 23.46 122.919 23.6267 123.353 23.96C123.793 24.2933 124.076 24.7467 124.203 25.32H123.453C123.359 24.9267 123.156 24.62 122.843 24.4C122.536 24.1733 122.153 24.06 121.693 24.06C121.326 24.06 120.996 24.1433 120.703 24.31C120.409 24.4767 120.176 24.7267 120.003 25.06C119.836 25.3867 119.753 25.79 119.753 26.27C119.753 26.75 119.836 27.1567 120.003 27.49C120.176 27.8233 120.409 28.0733 120.703 28.24C120.996 28.4067 121.326 28.49 121.693 28.49C122.153 28.49 122.536 28.38 122.843 28.16C123.156 27.9333 123.359 27.62 123.453 27.22H124.203C124.076 27.78 123.793 28.23 123.353 28.57C122.913 28.91 122.359 29.08 121.693 29.08C121.179 29.08 120.723 28.9667 120.323 28.74C119.923 28.5067 119.609 28.18 119.383 27.76C119.156 27.3333 119.043 26.8367 119.043 26.27ZM125.175 26.26C125.175 25.7 125.285 25.21 125.505 24.79C125.732 24.3633 126.042 24.0367 126.435 23.81C126.835 23.5767 127.285 23.46 127.785 23.46C128.305 23.46 128.752 23.58 129.125 23.82C129.505 24.06 129.779 24.3667 129.945 24.74V23.54H130.645V29H129.945V27.79C129.772 28.1633 129.495 28.4733 129.115 28.72C128.742 28.96 128.295 29.08 127.775 29.08C127.282 29.08 126.835 28.9633 126.435 28.73C126.042 28.4967 125.732 28.1667 125.505 27.74C125.285 27.3133 125.175 26.82 125.175 26.26ZM129.945 26.27C129.945 25.83 129.855 25.4433 129.675 25.11C129.495 24.7767 129.249 24.52 128.935 24.34C128.629 24.16 128.289 24.07 127.915 24.07C127.529 24.07 127.182 24.1567 126.875 24.33C126.569 24.5033 126.325 24.7567 126.145 25.09C125.972 25.4167 125.885 25.8067 125.885 26.26C125.885 26.7067 125.972 27.1 126.145 27.44C126.325 27.7733 126.569 28.03 126.875 28.21C127.182 28.3833 127.529 28.47 127.915 28.47C128.289 28.47 128.629 28.38 128.935 28.2C129.249 28.02 129.495 27.7633 129.675 27.43C129.855 27.0967 129.945 26.71 129.945 26.27ZM131.923 26.26C131.923 25.7 132.037 25.21 132.263 24.79C132.49 24.3633 132.8 24.0367 133.193 23.81C133.593 23.5767 134.043 23.46 134.543 23.46C135.023 23.46 135.457 23.5767 135.843 23.81C136.23 24.0433 136.513 24.3467 136.693 24.72V21.6H137.393V29H136.693V27.78C136.527 28.16 136.253 28.4733 135.873 28.72C135.493 28.96 135.047 29.08 134.533 29.08C134.033 29.08 133.583 28.9633 133.183 28.73C132.79 28.4967 132.48 28.1667 132.253 27.74C132.033 27.3133 131.923 26.82 131.923 26.26ZM136.693 26.27C136.693 25.83 136.603 25.4433 136.423 25.11C136.243 24.7767 135.997 24.52 135.683 24.34C135.377 24.16 135.037 24.07 134.663 24.07C134.277 24.07 133.93 24.1567 133.623 24.33C133.317 24.5033 133.073 24.7567 132.893 25.09C132.72 25.4167 132.633 25.8067 132.633 26.26C132.633 26.7067 132.72 27.1 132.893 27.44C133.073 27.7733 133.317 28.03 133.623 28.21C133.93 28.3833 134.277 28.47 134.663 28.47C135.037 28.47 135.377 28.38 135.683 28.2C135.997 28.02 136.243 27.7633 136.423 27.43C136.603 27.0967 136.693 26.71 136.693 26.27ZM143.931 25.99C143.931 26.23 143.925 26.4133 143.911 26.54H139.381C139.401 26.9533 139.501 27.3067 139.681 27.6C139.861 27.8933 140.098 28.1167 140.391 28.27C140.685 28.4167 141.005 28.49 141.351 28.49C141.805 28.49 142.185 28.38 142.491 28.16C142.805 27.94 143.011 27.6433 143.111 27.27H143.851C143.718 27.8033 143.431 28.24 142.991 28.58C142.558 28.9133 142.011 29.08 141.351 29.08C140.838 29.08 140.378 28.9667 139.971 28.74C139.565 28.5067 139.245 28.18 139.011 27.76C138.785 27.3333 138.671 26.8367 138.671 26.27C138.671 25.7033 138.785 25.2067 139.011 24.78C139.238 24.3533 139.555 24.0267 139.961 23.8C140.368 23.5733 140.831 23.46 141.351 23.46C141.871 23.46 142.325 23.5733 142.711 23.8C143.105 24.0267 143.405 24.3333 143.611 24.72C143.825 25.1 143.931 25.5233 143.931 25.99ZM143.221 25.97C143.228 25.5633 143.145 25.2167 142.971 24.93C142.805 24.6433 142.575 24.4267 142.281 24.28C141.988 24.1333 141.668 24.06 141.321 24.06C140.801 24.06 140.358 24.2267 139.991 24.56C139.625 24.8933 139.421 25.3633 139.381 25.97H143.221ZM151.712 23.44C152.352 23.44 152.872 23.6433 153.272 24.05C153.679 24.45 153.882 25.0333 153.882 25.8V29H153.192V25.88C153.192 25.2867 153.049 24.8333 152.762 24.52C152.475 24.2067 152.085 24.05 151.592 24.05C151.079 24.05 150.669 24.22 150.362 24.56C150.055 24.9 149.902 25.3933 149.902 26.04V29H149.212V25.88C149.212 25.2867 149.069 24.8333 148.782 24.52C148.495 24.2067 148.102 24.05 147.602 24.05C147.089 24.05 146.679 24.22 146.372 24.56C146.065 24.9 145.912 25.3933 145.912 26.04V29H145.212V23.54H145.912V24.48C146.085 24.14 146.332 23.8833 146.652 23.71C146.972 23.53 147.329 23.44 147.722 23.44C148.195 23.44 148.609 23.5533 148.962 23.78C149.322 24.0067 149.582 24.34 149.742 24.78C149.889 24.3467 150.139 24.0167 150.492 23.79C150.852 23.5567 151.259 23.44 151.712 23.44ZM159.937 23.54L156.697 31.57H155.967L157.027 28.97L154.787 23.54H155.557L157.417 28.2L159.217 23.54H159.937Z" fill="white"/>
</svg>
