<svg width="24" height="16" viewBox="0 0 24 16" fill="none" xmlns="http://www.w3.org/2000/svg">
<path d="M21.3335 4L12.0002 9L2.66683 4V2L12.0002 7L21.3335 2M21.3335 0H2.66683C1.37183 0 0.333496 0.89 0.333496 2V14C0.333496 14.5304 0.579329 15.0391 1.01691 15.4142C1.4545 15.7893 2.04799 16 2.66683 16H21.3335C21.9523 16 22.5458 15.7893 22.9834 15.4142C23.421 15.0391 23.6668 14.5304 23.6668 14V2C23.6668 1.46957 23.421 0.960859 22.9834 0.585786C22.5458 0.210714 21.9523 0 21.3335 0Z" fill="#303234"/>
</svg>
