<svg width="24" height="24" viewBox="0 0 24 24" fill="none" xmlns="http://www.w3.org/2000/svg">
<path fill-rule="evenodd" clip-rule="evenodd" d="M12 1.50006L12.1744 1.50149C17.8629 1.59462 22.5 6.23392 22.5 12.037L22.4986 12.212C22.4043 17.9183 17.7094 22.5001 12 22.5001L11.8256 22.4986C6.13715 22.4055 1.5 17.7659 1.5 12.037C1.5 6.17472 6.23225 1.50006 12 1.50006ZM19.1898 12.6936L10.5333 14.8618C10.4515 14.8823 10.3695 14.8919 10.2888 14.8919L10.1947 14.8875C9.9771 14.8669 9.7739 14.7755 9.6147 14.6313L8.77025 17.5706L8.7588 17.6359C8.65405 18.3941 9.53885 19.014 10.4583 18.5451L18.4499 13.9984L18.5457 13.9411C19.1012 13.5908 19.3146 13.1294 19.1898 12.6936ZM8.98995 6.38902C8.3852 5.92527 7.41075 6.38157 7.35715 7.40997L7.29905 16.6043C7.29455 17.3249 7.59465 17.7816 8.0592 17.8969L10.5097 9.31662L10.5368 9.23472C10.6481 8.94147 10.8859 8.72682 11.1685 8.63632L9.0455 6.43517L8.98995 6.38902ZM10.5309 5.63972C9.94965 5.33382 9.4435 5.37982 9.1287 5.70607L15.3344 12.1182C15.5767 12.3684 15.6624 12.7125 15.5942 13.0293L18.5619 12.2909L18.6297 12.2658C19.3335 11.974 19.4254 10.902 18.5619 10.3416L10.6284 5.69397L10.5309 5.63972Z" fill="black"/>
</svg>
