<svg width="20" height="19" viewBox="0 0 20 19" fill="none" xmlns="http://www.w3.org/2000/svg">
<path fill-rule="evenodd" clip-rule="evenodd" d="M10.0002 7.80001C11.1141 7.80001 12.1824 7.42072 12.97 6.74559C13.7577 6.07046 14.2002 5.15479 14.2002 4.20001C14.2002 3.24523 13.7577 2.32955 12.97 1.65442C12.1824 0.979291 11.1141 0.600006 10.0002 0.600006C8.88629 0.600006 7.818 0.979291 7.03035 1.65442C6.24269 2.32955 5.80019 3.24523 5.80019 4.20001C5.80019 5.15479 6.24269 6.07046 7.03035 6.74559C7.818 7.42072 8.88629 7.80001 10.0002 7.80001V7.80001ZM0.200195 18.6C0.200195 17.4969 0.45368 16.4046 0.946176 15.3855C1.43867 14.3663 2.16053 13.4403 3.07055 12.6603C3.98056 11.8803 5.06091 11.2616 6.2499 10.8394C7.43889 10.4173 8.71324 10.2 10.0002 10.2C11.2871 10.2 12.5615 10.4173 13.7505 10.8394C14.9395 11.2616 16.0198 11.8803 16.9298 12.6603C17.8399 13.4403 18.5617 14.3663 19.0542 15.3855C19.5467 16.4046 19.8002 17.4969 19.8002 18.6H0.200195Z" fill="#232325"/>
</svg>
