<svg width="28" height="24" viewBox="0 0 28 24" fill="none" xmlns="http://www.w3.org/2000/svg">
<path d="M25.2871 14.6648L23.4961 13.3523C23.5809 12.907 23.6246 12.4523 23.6246 11.9976C23.6246 11.5429 23.5809 11.0882 23.4961 10.6429L25.2871 9.33044C25.4222 9.23131 25.5189 9.09929 25.5643 8.95192C25.6097 8.80455 25.6017 8.64882 25.5414 8.50544L25.5168 8.4445C25.0237 7.26331 24.2854 6.16834 23.3375 5.21247L23.2883 5.16325C23.1733 5.04736 23.02 4.96405 22.8487 4.9243C22.6774 4.88456 22.496 4.89024 22.3285 4.9406L20.1055 5.61794C19.2852 5.04138 18.3691 4.58669 17.3793 4.26794L16.95 2.27576C16.9176 2.12586 16.8328 1.98795 16.7068 1.88036C16.5808 1.77277 16.4195 1.70059 16.2445 1.67341L16.1707 1.66169C14.7461 1.44138 13.2477 1.44138 11.823 1.66169L11.7492 1.67341C11.5742 1.70059 11.413 1.77277 11.287 1.88036C11.161 1.98795 11.0761 2.12586 11.0438 2.27576L10.6117 4.27732C9.62977 4.59613 8.71534 5.05058 7.90469 5.62263L5.66524 4.9406C5.4978 4.88984 5.31631 4.88395 5.14487 4.92372C4.97344 4.96349 4.82018 5.04704 4.70547 5.16325L4.65625 5.21247C3.70947 6.16901 2.97127 7.26381 2.47696 8.4445L2.45235 8.50544C2.3293 8.79841 2.43047 9.12653 2.70665 9.33044L4.51954 10.657C4.43477 11.0976 4.39375 11.5476 4.39375 11.9953C4.39375 12.4453 4.43477 12.8953 4.51954 13.3336L2.70665 14.6601C2.57156 14.7592 2.47487 14.8913 2.42945 15.0386C2.38402 15.186 2.39201 15.3417 2.45235 15.4851L2.47696 15.5461C2.97188 16.7273 3.70469 17.8172 4.65625 18.7781L4.70547 18.8273C4.82047 18.9432 4.97373 19.0265 5.14506 19.0663C5.31639 19.106 5.49775 19.1003 5.66524 19.05L7.90469 18.3679C8.71953 18.9422 9.63008 19.3968 10.6117 19.7132L11.0438 21.7148C11.0761 21.8647 11.161 22.0026 11.287 22.1102C11.413 22.2178 11.5742 22.29 11.7492 22.3171L11.823 22.3289C13.2607 22.5504 14.733 22.5504 16.1707 22.3289L16.2445 22.3171C16.4195 22.29 16.5808 22.2178 16.7068 22.1102C16.8328 22.0026 16.9176 21.8647 16.95 21.7148L17.3793 19.7226C18.3687 19.4047 19.2899 18.9485 20.1055 18.3726L22.3285 19.05C22.4959 19.1007 22.6774 19.1066 22.8489 19.0668C23.0203 19.0271 23.1736 18.9435 23.2883 18.8273L23.3375 18.7781C24.2891 17.8148 25.0219 16.7273 25.5168 15.5461L25.5414 15.4851C25.6644 15.1968 25.5633 14.8687 25.2871 14.6648V14.6648ZM21.5547 10.9195C21.623 11.2734 21.6586 11.6367 21.6586 12C21.6586 12.3632 21.623 12.7265 21.5547 13.0804L21.3742 14.0203L23.4168 15.5179C23.1071 16.1294 22.7163 16.7082 22.2519 17.2429L19.7144 16.4718L18.8559 17.0765C18.2023 17.5359 17.475 17.8968 16.6875 18.15L15.6457 18.4851L15.1562 20.7586C14.384 20.8336 13.6043 20.8336 12.832 20.7586L12.3426 18.4804L11.309 18.1406C10.5297 17.8875 9.80508 17.5265 9.15703 17.0695L8.29844 16.4625L5.74454 17.2406C5.27969 16.7039 4.89141 16.125 4.57969 15.5156L6.64414 14.0039L6.46641 13.0664C6.40078 12.7172 6.36524 12.3562 6.36524 12C6.36524 11.6414 6.39805 11.2828 6.46641 10.9336L6.64414 9.99606L4.57969 8.48435C4.88868 7.87263 5.27969 7.29606 5.74454 6.75935L8.29844 7.53747L9.15703 6.93044C9.80508 6.47341 10.5297 6.11247 11.309 5.85935L12.3453 5.52419L12.8348 3.24607C13.6031 3.17107 14.3879 3.17107 15.159 3.24607L15.6484 5.5195L16.6902 5.85466C17.475 6.10778 18.2051 6.46872 18.8586 6.9281L19.7172 7.53278L22.2547 6.76169C22.7195 7.29841 23.1078 7.87731 23.4195 8.48669L21.3769 9.98434L21.5547 10.9195ZM13.9996 7.6406C11.3418 7.6406 9.18711 9.48747 9.18711 11.7656C9.18711 14.0437 11.3418 15.8906 13.9996 15.8906C16.6574 15.8906 18.8121 14.0437 18.8121 11.7656C18.8121 9.48747 16.6574 7.6406 13.9996 7.6406ZM16.1652 13.6218C15.8812 13.866 15.5436 14.0596 15.172 14.1916C14.8003 14.3235 14.4019 14.3911 13.9996 14.3906C13.182 14.3906 12.4137 14.1164 11.834 13.6218C11.5491 13.3784 11.3232 13.089 11.1693 12.7705C11.0154 12.4519 10.9365 12.1104 10.9371 11.7656C10.9371 11.0648 11.257 10.4062 11.834 9.90934C12.4137 9.41247 13.182 9.14059 13.9996 9.14059C14.8172 9.14059 15.5855 9.41247 16.1652 9.90934C16.4501 10.1528 16.676 10.4421 16.8299 10.7607C16.9838 11.0793 17.0627 11.4208 17.0621 11.7656C17.0621 12.4664 16.7422 13.125 16.1652 13.6218Z" fill="white"/>
</svg>
